<svg height="42.915" viewBox="0 0 44 42.915" width="44" xmlns="http://www.w3.org/2000/svg"><path d="m22 0a22 22 0 0 0 -6.958 42.872c1.1.193 1.513-.468 1.513-1.045 0-.522-.028-2.255-.028-4.1-5.527 1.02-6.957-1.345-7.397-2.582a8 8 0 0 0 -2.255-3.107c-.77-.413-1.87-1.43-.028-1.458 1.732-.027 2.97 1.595 3.383 2.255 1.98 3.328 5.142 2.393 6.408 1.815a4.628 4.628 0 0 1 1.4-2.943c-4.9-.55-10.01-2.447-10.01-10.862a8.562 8.562 0 0 1 2.255-5.913 7.905 7.905 0 0 1 .217-5.832s1.842-.578 6.05 2.255a20.742 20.742 0 0 1 11 0c4.212-2.855 6.055-2.255 6.055-2.255a7.905 7.905 0 0 1 .22 5.83 8.512 8.512 0 0 1 2.255 5.913c0 8.442-5.143 10.312-10.038 10.862a5.21 5.21 0 0 1 1.485 4.07c0 2.942-.028 5.307-.028 6.05 0 .577.412 1.265 1.512 1.045a22.012 22.012 0 0 0 -7.011-42.87z" fill="#fff" fill-rule="evenodd"/></svg>